<svg width="204" height="218" viewBox="0 0 204 218" fill="none" xmlns="http://www.w3.org/2000/svg">
<path d="M56.3171 108.202L49.0594 105.847C49.0527 105.868 49.0454 105.89 49.0388 105.912L56.3171 108.202ZM180.004 108.202L185.096 113.836C186.716 112.402 187.641 110.353 187.641 108.202C187.641 106.052 186.716 104.003 185.096 102.568L180.004 108.202ZM18.644 200.532C17.366 204.511 19.5886 208.762 23.6084 210.027C27.6283 211.292 31.9232 209.092 33.201 205.113L18.644 200.532ZM165.3 85.0362C162.157 82.2523 157.328 82.5178 154.515 85.6298C151.703 88.7411 151.971 93.5202 155.115 96.3042L165.3 85.0362ZM155.115 120.1C151.971 122.884 151.703 127.663 154.515 130.775C157.328 133.886 162.157 134.151 165.3 131.367L155.115 120.1ZM136.277 162.737L143.54 160.399L136.277 162.737ZM88.7253 17.9876L81.4616 20.3252L88.7253 17.9876ZM86.1996 17.9845L78.9425 15.6294L86.1996 17.9845ZM81.4616 20.3252L129.014 165.075L143.54 160.399L95.9884 15.65L81.4616 20.3252ZM63.5749 110.557L93.4573 20.3396L78.9425 15.6294L49.0594 105.847L63.5749 110.557ZM138.721 158.09L60.8048 102.085L51.8295 114.319L129.745 170.324L138.721 158.09ZM180.004 100.642H56.3171V115.762H180.004V100.642ZM33.201 205.113L63.5955 110.493L49.0388 105.912L18.644 200.532L33.201 205.113ZM185.096 102.568L165.3 85.0362L155.115 96.3042L174.911 113.836L185.096 102.568ZM165.3 131.367L185.096 113.836L174.911 102.568L155.115 120.1L165.3 131.367ZM129.014 165.075C127.123 159.321 133.775 154.536 138.721 158.09L129.745 170.324C136.773 175.376 146.225 168.575 143.54 160.399L129.014 165.075ZM95.9884 15.65C93.3066 7.48672 81.6442 7.47259 78.9425 15.6294L93.4573 20.3396C91.5559 26.0796 83.3491 26.0697 81.4616 20.3252L95.9884 15.65Z" fill="#141414"/>
</svg>
