<svg width="810" height="327" viewBox="0 0 810 327" fill="none" xmlns="http://www.w3.org/2000/svg">
<path d="M118.102 151.905L108.665 148.814C108.657 148.842 108.647 148.87 108.638 148.899L118.102 151.905ZM278.923 151.905L285.545 159.3C287.65 157.417 288.854 154.728 288.854 151.905C288.854 149.083 287.65 146.393 285.545 144.511L278.923 151.905ZM69.1182 273.088C67.4564 278.311 70.3463 283.89 75.573 285.55C80.7998 287.211 86.3841 284.323 88.0456 279.101L69.1182 273.088ZM259.805 121.5C255.718 117.846 249.439 118.195 245.782 122.279C242.125 126.363 242.474 132.635 246.562 136.289L259.805 121.5ZM246.562 167.521C242.474 171.175 242.125 177.448 245.782 181.532C249.439 185.615 255.718 185.964 259.805 182.31L246.562 167.521ZM222.068 223.482L231.511 220.414L222.068 223.482ZM160.24 33.4983L150.796 36.5665L160.24 33.4983ZM156.956 33.4944L147.52 30.4032L156.956 33.4944ZM150.796 36.5665L212.624 226.551L231.511 220.414L169.684 30.4302L150.796 36.5665ZM127.539 154.996L166.393 36.5854L147.52 30.4032L108.665 148.814L127.539 154.996ZM225.246 217.383L123.937 143.877L112.267 159.934L213.575 233.441L225.246 217.383ZM278.923 141.983H118.102V161.827H278.923V141.983ZM88.0456 279.101L127.565 154.912L108.638 148.899L69.1182 273.088L88.0456 279.101ZM285.545 144.511L259.805 121.5L246.562 136.289L272.302 159.3L285.545 144.511ZM259.805 182.31L285.545 159.3L272.302 144.511L246.562 167.521L259.805 182.31ZM212.624 226.551C210.166 218.999 218.816 212.718 225.246 217.383L213.575 233.441C222.713 240.071 235.004 231.145 231.511 220.414L212.624 226.551ZM169.684 30.4302C166.197 19.7159 151.033 19.6974 147.52 30.4032L166.393 36.5854C163.92 44.1192 153.25 44.1062 150.796 36.5665L169.684 30.4302Z" fill="url(#paint0_linear_12_18)"/>
<path d="M360.924 97.2735L335.692 187.227H317.486L350.602 82.9498H361.928L360.924 97.2735ZM381.066 187.227L355.763 97.2735L354.544 82.9498H366.086L399.345 187.227H381.066ZM381.496 148.481V163.091H332.897V148.481H381.496ZM445.794 166.816C445.794 165.192 445.316 163.76 444.36 162.518C443.453 161.229 441.971 159.964 439.916 158.723C437.861 157.481 435.113 156.145 431.673 154.712C428.089 153.232 424.911 151.751 422.14 150.272C419.368 148.791 417.026 147.168 415.115 145.401C413.203 143.588 411.746 141.51 410.742 139.171C409.738 136.831 409.237 134.11 409.237 131.006C409.237 127.807 409.834 124.847 411.028 122.125C412.224 119.404 413.944 117.017 416.19 114.963C418.436 112.862 421.136 111.24 424.29 110.094C427.444 108.9 431.004 108.303 434.97 108.303C440.562 108.303 445.34 109.329 449.307 111.383C453.32 113.388 456.379 116.205 458.482 119.834C460.632 123.414 461.707 127.545 461.707 132.224H445.005C445.005 130.266 444.647 128.5 443.93 126.923C443.213 125.301 442.114 124.012 440.633 123.056C439.151 122.054 437.264 121.553 434.97 121.553C432.867 121.553 431.1 121.958 429.665 122.77C428.28 123.534 427.229 124.584 426.512 125.921C425.843 127.21 425.508 128.666 425.508 130.29C425.508 131.483 425.723 132.534 426.153 133.441C426.583 134.349 427.3 135.231 428.304 136.091C429.307 136.903 430.646 137.739 432.318 138.598C434.038 139.457 436.213 140.436 438.841 141.534C444.049 143.539 448.375 145.616 451.815 147.765C455.256 149.914 457.837 152.42 459.557 155.285C461.277 158.15 462.137 161.707 462.137 165.956C462.137 169.394 461.492 172.497 460.202 175.267C458.959 178.036 457.143 180.423 454.754 182.428C452.413 184.434 449.569 185.985 446.224 187.084C442.927 188.134 439.247 188.659 435.185 188.659C429.116 188.659 423.979 187.466 419.774 185.079C415.616 182.644 412.463 179.516 410.312 175.697C408.162 171.877 407.086 167.842 407.086 163.592H423.215C423.358 166.648 424.003 169.036 425.15 170.754C426.344 172.473 427.85 173.667 429.665 174.336C431.481 174.956 433.369 175.267 435.329 175.267C437.67 175.267 439.606 174.956 441.135 174.336C442.664 173.667 443.811 172.688 444.575 171.399C445.388 170.11 445.794 168.582 445.794 166.816ZM504.214 174.694C506.364 174.694 508.275 174.24 509.948 173.332C511.668 172.426 513.031 171.018 514.034 169.107C515.037 167.15 515.587 164.619 515.683 161.516H531.381C531.285 167.006 530.018 171.805 527.581 175.911C525.144 179.97 521.895 183.121 517.833 185.365C513.819 187.561 509.35 188.659 504.429 188.659C499.315 188.659 494.847 187.847 491.024 186.224C487.249 184.553 484.119 182.142 481.634 178.991C479.15 175.84 477.285 172.02 476.044 167.532C474.848 162.996 474.251 157.815 474.251 151.99V144.971C474.251 139.194 474.848 134.038 476.044 129.502C477.285 124.967 479.15 121.123 481.634 117.971C484.119 114.82 487.249 112.433 491.024 110.81C494.8 109.139 499.243 108.303 504.357 108.303C509.804 108.303 514.512 109.449 518.478 111.741C522.492 113.985 525.622 117.279 527.868 121.624C530.114 125.969 531.285 131.293 531.381 137.595H515.683C515.587 134.253 515.085 131.46 514.177 129.216C513.269 126.923 511.979 125.205 510.306 124.059C508.682 122.913 506.627 122.34 504.142 122.34C501.418 122.34 499.172 122.866 497.404 123.916C495.684 124.918 494.345 126.399 493.389 128.357C492.482 130.313 491.837 132.701 491.454 135.518C491.12 138.287 490.953 141.438 490.953 144.971V151.99C490.953 155.619 491.12 158.842 491.454 161.659C491.789 164.428 492.41 166.792 493.318 168.749C494.274 170.707 495.635 172.187 497.404 173.189C499.172 174.193 501.442 174.694 504.214 174.694ZM574.03 188.659C569.013 188.659 564.545 187.919 560.626 186.439C556.708 184.911 553.386 182.667 550.663 179.707C547.938 176.699 545.86 173.023 544.426 168.678C542.993 164.285 542.276 159.2 542.276 153.423V145.975C542.276 139.433 543.016 133.799 544.498 129.073C546.027 124.298 548.13 120.383 550.806 117.327C553.482 114.271 556.636 112.003 560.268 110.523C563.948 109.043 567.938 108.303 572.238 108.303C577.113 108.303 581.342 109.09 584.925 110.667C588.51 112.242 591.449 114.605 593.742 117.756C596.084 120.908 597.804 124.799 598.904 129.431C600.05 134.062 600.624 139.386 600.624 145.401V153.781H550.304V141.176H584.137V139.386C584.042 135.853 583.612 132.821 582.847 130.29C582.083 127.712 580.84 125.754 579.12 124.417C577.447 123.032 575.13 122.34 572.167 122.34C570.016 122.34 568.105 122.746 566.432 123.558C564.76 124.37 563.374 125.683 562.275 127.496C561.223 129.311 560.411 131.747 559.838 134.802C559.265 137.81 558.978 141.534 558.978 145.975V153.423C558.978 157.29 559.312 160.56 559.981 163.234C560.698 165.908 561.749 168.105 563.135 169.823C564.521 171.495 566.194 172.736 568.153 173.548C570.16 174.312 572.478 174.694 575.105 174.694C578.977 174.694 582.298 173.978 585.069 172.545C587.888 171.065 590.326 169.155 592.38 166.816L599.764 177.057C598.378 178.919 596.514 180.758 594.172 182.571C591.831 184.338 588.988 185.795 585.642 186.94C582.345 188.086 578.475 188.659 574.03 188.659ZM630.514 126.279V187.227H613.813V109.736H629.511L630.514 126.279ZM627.504 145.688H622.199C622.152 140.102 622.749 135.017 623.992 130.433C625.234 125.849 627.002 121.911 629.296 118.616C631.638 115.321 634.409 112.791 637.611 111.025C640.86 109.21 644.468 108.303 648.435 108.303C651.493 108.303 654.288 108.828 656.821 109.879C659.402 110.882 661.6 112.529 663.416 114.82C665.232 117.112 666.618 120.096 667.573 123.773C668.577 127.449 669.079 131.937 669.079 137.237V187.227H652.377V137.094C652.377 133.465 651.971 130.6 651.159 128.5C650.394 126.351 649.247 124.823 647.718 123.916C646.188 122.961 644.253 122.484 641.912 122.484C639.761 122.484 637.778 123.104 635.962 124.345C634.194 125.54 632.665 127.21 631.374 129.359C630.133 131.46 629.177 133.919 628.507 136.735C627.838 139.505 627.504 142.489 627.504 145.688ZM717.177 109.736V122.627H679.114V109.736H717.177ZM689.508 90.7559H706.138V165.598C706.138 167.986 706.4 169.799 706.926 171.041C707.451 172.282 708.192 173.118 709.148 173.548C710.104 173.978 711.227 174.193 712.517 174.193C713.473 174.193 714.405 174.121 715.313 173.978C716.268 173.786 716.962 173.62 717.392 173.476V186.94C716.149 187.418 714.715 187.824 713.09 188.158C711.466 188.492 709.507 188.659 707.213 188.659C703.82 188.659 700.786 187.967 698.11 186.582C695.433 185.15 693.331 182.834 691.801 179.635C690.272 176.388 689.508 172.092 689.508 166.744V90.7559Z" fill="url(#paint1_linear_12_18)"/>
<path d="M360.924 97.2735L361.756 97.5064L361.779 97.4219L361.786 97.3339L360.924 97.2735ZM335.692 187.227V188.09H336.348L336.524 187.46L335.692 187.227ZM317.486 187.227L316.663 186.966L316.306 188.09H317.486V187.227ZM350.602 82.9498V82.0871H349.97L349.779 82.6889L350.602 82.9498ZM361.928 82.9498L362.789 83.0102L362.854 82.0871H361.928V82.9498ZM381.066 187.227L380.235 187.461L380.412 188.09H381.066V187.227ZM355.763 97.2735L354.903 97.3468L354.91 97.4279L354.932 97.5073L355.763 97.2735ZM354.544 82.9498V82.0871H353.605L353.684 83.0229L354.544 82.9498ZM366.085 82.9498L366.908 82.6879L366.716 82.0871H366.085V82.9498ZM399.345 187.227V188.09H400.526L400.168 186.965L399.345 187.227ZM381.496 148.481H382.36V147.619H381.496V148.481ZM381.496 163.091V163.954H382.36V163.091H381.496ZM332.897 163.091H332.034V163.954H332.897V163.091ZM332.897 148.481V147.619H332.034V148.481H332.897ZM360.093 97.0405L334.861 186.994L336.524 187.46L361.756 97.5064L360.093 97.0405ZM335.692 186.364H317.486V188.09H335.692V186.364ZM318.308 187.488L351.425 83.2108L349.779 82.6889L316.663 186.966L318.308 187.488ZM350.602 83.8126H361.928V82.0871H350.602V83.8126ZM361.067 82.8896L360.062 97.2131L361.786 97.3339L362.789 83.0102L361.067 82.8896ZM381.898 186.993L356.594 97.0405L354.932 97.5073L380.235 187.461L381.898 186.993ZM356.624 97.2001L355.405 82.8768L353.684 83.0229L354.903 97.3468L356.624 97.2001ZM354.544 83.8126H366.085V82.0871H354.544V83.8126ZM365.263 83.2119L398.522 187.489L400.168 186.965L366.908 82.6879L365.263 83.2119ZM399.345 186.364H381.066V188.09H399.345V186.364ZM380.633 148.481V163.091H382.36V148.481H380.633ZM381.496 162.228H332.897V163.954H381.496V162.228ZM333.761 163.091V148.481H332.034V163.091H333.761ZM332.897 149.344H381.496V147.619H332.897V149.344ZM444.36 162.518L443.654 163.015L443.665 163.03L443.675 163.044L444.36 162.518ZM439.916 158.723L440.363 157.984L439.916 158.723ZM431.673 154.712L432.005 153.915L432.003 153.914L431.673 154.712ZM422.14 150.272L422.546 149.511L422.14 150.272ZM415.115 145.401L414.52 146.028L414.528 146.035L415.115 145.401ZM416.19 114.963L416.773 115.6L416.78 115.593L416.19 114.963ZM424.29 110.094L424.585 110.904L424.595 110.9L424.29 110.094ZM449.307 111.383L448.909 112.149L448.914 112.152L448.92 112.154L449.307 111.383ZM458.482 119.834L457.734 120.266L457.737 120.271L457.741 120.277L458.482 119.834ZM461.707 132.224V133.086H462.571V132.224H461.707ZM445.005 132.224H444.142V133.086H445.005V132.224ZM443.93 126.923L443.14 127.272L443.144 127.281L443.93 126.923ZM440.633 123.056L440.149 123.771L440.156 123.776L440.165 123.781L440.633 123.056ZM429.665 122.77L430.083 123.526L430.091 123.521L429.665 122.77ZM426.512 125.921L425.751 125.514L425.745 125.524L426.512 125.921ZM428.304 136.091L427.742 136.746L427.751 136.754L427.76 136.762L428.304 136.091ZM432.318 138.598L431.923 139.365L431.932 139.369L432.318 138.598ZM438.84 141.534L438.508 142.33L438.519 142.335L438.53 142.339L438.84 141.534ZM460.202 175.267L459.419 174.903L459.416 174.908L459.413 174.914L460.202 175.267ZM454.754 182.428L454.198 181.768L454.192 181.773L454.754 182.428ZM446.224 187.084L446.486 187.906L446.493 187.903L446.224 187.084ZM419.773 185.079L419.337 185.823L419.347 185.828L419.773 185.079ZM407.086 163.592V162.73H406.223V163.592H407.086ZM423.215 163.592L424.077 163.553L424.038 162.73H423.215V163.592ZM425.15 170.754L424.431 171.233L424.436 171.24L424.441 171.247L425.15 170.754ZM429.665 174.336L429.367 175.145L429.377 175.149L429.386 175.152L429.665 174.336ZM441.135 174.336L441.46 175.135L441.47 175.131L441.481 175.126L441.135 174.336ZM444.575 171.399L443.845 170.939L443.839 170.949L443.833 170.959L444.575 171.399ZM446.657 166.816C446.657 165.009 446.121 163.39 445.045 161.993L443.675 163.044C444.511 164.129 444.93 165.375 444.93 166.816H446.657ZM445.067 162.022C444.063 160.598 442.472 159.259 440.363 157.984L439.469 159.461C441.47 160.67 442.841 161.861 443.654 163.015L445.067 162.022ZM440.363 157.984C438.257 156.712 435.466 155.356 432.005 153.915L431.341 155.509C434.761 156.932 437.466 158.251 439.469 159.461L440.363 157.984ZM432.003 153.914C428.439 152.443 425.288 150.975 422.546 149.511L421.732 151.033C424.534 152.529 427.739 154.021 431.343 155.51L432.003 153.914ZM422.546 149.511C419.827 148.059 417.549 146.475 415.701 144.768L414.528 146.035C416.503 147.86 418.908 149.524 421.732 151.033L422.546 149.511ZM415.71 144.776C413.88 143.04 412.491 141.059 411.536 138.831L409.948 139.511C411 141.962 412.527 144.135 414.52 146.027L415.71 144.776ZM411.536 138.831C410.587 136.62 410.1 134.017 410.1 131.006H408.373C408.373 134.201 408.889 137.042 409.948 139.511L411.536 138.831ZM410.1 131.006C410.1 127.917 410.676 125.076 411.819 122.472L410.238 121.779C408.992 124.618 408.373 127.697 408.373 131.006H410.1ZM411.819 122.472C412.964 119.863 414.613 117.574 416.773 115.6L415.607 114.327C413.274 116.459 411.482 118.944 410.238 121.779L411.819 122.472ZM416.78 115.593C418.933 113.579 421.531 112.014 424.585 110.904L423.994 109.283C420.742 110.465 417.938 112.146 415.6 114.334L416.78 115.593ZM424.595 110.9C427.636 109.75 431.09 109.165 434.97 109.165V107.44C430.917 107.44 427.251 108.05 423.984 109.286L424.595 110.9ZM434.97 109.165C440.457 109.165 445.092 110.173 448.909 112.149L449.704 110.617C445.587 108.486 440.665 107.44 434.97 107.44V109.165ZM448.92 112.154C452.794 114.089 455.722 116.793 457.734 120.266L459.229 119.402C457.035 115.617 453.846 112.686 449.693 110.611L448.92 112.154ZM457.741 120.277C459.801 123.709 460.843 127.682 460.843 132.224H462.571C462.571 127.408 461.462 123.12 459.222 119.39L457.741 120.277ZM461.707 131.361H445.005V133.086H461.707V131.361ZM445.869 132.224C445.869 130.159 445.491 128.269 444.716 126.567L443.144 127.281C443.803 128.73 444.142 130.373 444.142 132.224H445.869ZM444.72 126.576C443.936 124.799 442.725 123.378 441.101 122.332L440.165 123.781C441.503 124.644 442.491 125.802 443.14 127.272L444.72 126.576ZM441.118 122.342C439.457 121.219 437.388 120.69 434.97 120.69V122.415C437.139 122.415 438.846 122.889 440.149 123.771L441.118 122.342ZM434.97 120.69C432.759 120.69 430.835 121.117 429.24 122.019L430.091 123.521C431.364 122.8 432.976 122.415 434.97 122.415V120.69ZM429.248 122.014C427.723 122.855 426.55 124.024 425.751 125.514L427.273 126.329C427.908 125.145 428.836 124.213 430.083 123.526L429.248 122.014ZM425.745 125.524C425.006 126.949 424.645 128.545 424.645 130.29H426.372C426.372 128.788 426.68 127.471 427.279 126.319L425.745 125.524ZM424.645 130.29C424.645 131.588 424.879 132.768 425.373 133.81L426.934 133.072C426.568 132.3 426.372 131.38 426.372 130.29H424.645ZM425.373 133.81C425.868 134.856 426.674 135.832 427.742 136.746L428.866 135.436C427.927 134.632 427.298 133.841 426.934 133.072L425.373 133.81ZM427.76 136.762C428.826 137.623 430.22 138.489 431.923 139.365L432.713 137.83C431.071 136.987 429.789 136.182 428.848 135.42L427.76 136.762ZM431.932 139.369C433.676 140.241 435.869 141.228 438.508 142.33L439.174 140.738C436.556 139.645 434.401 138.674 432.704 137.826L431.932 139.369ZM438.53 142.339C443.706 144.331 447.977 146.386 451.357 148.497L452.273 147.034C448.772 144.847 444.394 142.747 439.151 140.729L438.53 142.339ZM451.357 148.497C454.707 150.588 457.179 153.003 458.816 155.729L460.297 154.841C458.493 151.837 455.805 149.239 452.273 147.034L451.357 148.497ZM458.816 155.729C460.437 158.428 461.273 161.821 461.273 165.956H463.001C463.001 161.592 462.117 157.872 460.297 154.841L458.816 155.729ZM461.273 165.956C461.273 169.284 460.65 172.261 459.419 174.903L460.984 175.631C462.334 172.734 463.001 169.503 463.001 165.956H461.273ZM459.413 174.914C458.226 177.561 456.491 179.844 454.198 181.768L455.309 183.089C457.796 181.003 459.692 178.511 460.989 175.62L459.413 174.914ZM454.192 181.773C451.947 183.696 449.207 185.196 445.954 186.264L446.493 187.903C449.931 186.775 452.877 185.172 455.316 183.084L454.192 181.773ZM445.962 186.261C442.763 187.28 439.173 187.796 435.185 187.796V189.522C439.321 189.522 443.091 188.987 446.486 187.906L445.962 186.261ZM435.185 187.796C429.228 187.796 424.247 186.625 420.2 184.328L419.347 185.828C423.712 188.306 429.004 189.522 435.185 189.522V187.796ZM420.21 184.334C416.172 181.968 413.133 178.947 411.065 175.273L409.56 176.119C411.792 180.085 415.061 183.318 419.337 185.822L420.21 184.334ZM411.065 175.273C408.984 171.578 407.95 167.689 407.95 163.592H406.223C406.223 167.995 407.339 172.175 409.56 176.119L411.065 175.273ZM407.086 164.455H423.215V162.73H407.086V164.455ZM422.352 163.633C422.5 166.775 423.165 169.336 424.431 171.233L425.868 170.276C424.841 168.736 424.216 166.522 424.077 163.553L422.352 163.633ZM424.441 171.247C425.728 173.099 427.371 174.41 429.367 175.145L429.964 173.526C428.329 172.924 426.962 171.848 425.859 170.263L424.441 171.247ZM429.386 175.152C431.294 175.804 433.276 176.13 435.328 176.13V174.404C433.462 174.404 431.67 174.108 429.945 173.519L429.386 175.152ZM435.328 176.13C437.739 176.13 439.794 175.811 441.46 175.135L440.809 173.536C439.417 174.101 437.602 174.404 435.328 174.404V176.13ZM441.481 175.126C443.156 174.394 444.451 173.301 445.318 171.839L443.833 170.959C443.17 172.075 442.171 172.941 440.789 173.545L441.481 175.126ZM445.306 171.859C446.218 170.411 446.657 168.718 446.657 166.816H444.93C444.93 168.446 444.557 169.809 443.845 170.939L445.306 171.859ZM509.948 173.332L509.544 172.57L509.536 172.575L509.948 173.332ZM514.034 169.107L514.798 169.509L514.803 169.501L514.034 169.107ZM515.682 161.516V160.653H514.845L514.819 161.489L515.682 161.516ZM531.381 161.516L532.243 161.531L532.259 160.653H531.381V161.516ZM527.581 175.911L528.322 176.355L528.324 176.351L527.581 175.911ZM517.833 185.365L518.247 186.122L518.251 186.12L517.833 185.365ZM491.024 186.224L490.674 187.013L490.68 187.016L490.686 187.018L491.024 186.224ZM476.043 167.532L475.208 167.751L475.211 167.761L476.043 167.532ZM476.043 129.502L475.21 129.275L475.208 129.282L476.043 129.502ZM491.024 110.81L491.366 111.602L491.374 111.599L491.024 110.81ZM518.478 111.741L518.046 112.487L518.051 112.491L518.056 112.493L518.478 111.741ZM531.381 137.595V138.458H532.257L532.243 137.582L531.381 137.595ZM515.682 137.595L514.819 137.62L514.843 138.458H515.682V137.595ZM514.177 129.216L513.374 129.533L513.377 129.539L514.177 129.216ZM510.306 124.059L509.809 124.764L509.818 124.771L510.306 124.059ZM497.404 123.916L497.839 124.661L497.845 124.658L497.404 123.916ZM493.389 128.357L492.614 127.978L492.61 127.986L492.606 127.993L493.389 128.357ZM491.454 135.518L490.598 135.402L490.598 135.408L490.597 135.415L491.454 135.518ZM491.454 161.659L490.597 161.761V161.762L491.454 161.659ZM493.318 168.749L492.534 169.112L492.538 169.119L492.542 169.127L493.318 168.749ZM497.404 173.189L496.977 173.94L497.404 173.189ZM504.214 175.557C506.489 175.557 508.545 175.075 510.36 174.091L509.536 172.575C508.006 173.405 506.239 173.831 504.214 173.831V175.557ZM510.351 174.096C512.242 173.099 513.723 171.555 514.798 169.509L513.269 168.706C512.337 170.479 511.094 171.753 509.544 172.57L510.351 174.096ZM514.803 169.501C515.883 167.392 516.448 164.724 516.545 161.542L514.819 161.489C514.726 164.514 514.191 166.907 513.265 168.714L514.803 169.501ZM515.682 162.378H531.381V160.653H515.682V162.378ZM530.517 161.501C530.424 166.865 529.188 171.512 526.839 175.471L528.324 176.351C530.849 172.098 532.146 167.149 532.243 161.531L530.517 161.501ZM526.841 175.467C524.48 179.398 521.341 182.441 517.415 184.61L518.251 186.12C522.448 183.801 525.808 180.541 528.322 176.355L526.841 175.467ZM517.418 184.608C513.541 186.73 509.217 187.796 504.429 187.796V189.522C509.484 189.522 514.097 188.393 518.247 186.122L517.418 184.608ZM504.429 187.796C499.406 187.796 495.057 186.999 491.362 185.431L490.686 187.018C494.638 188.696 499.225 189.522 504.429 189.522V187.796ZM491.374 185.436C487.724 183.82 484.707 181.495 482.313 178.457L480.956 179.525C483.53 182.79 486.775 185.287 490.674 187.013L491.374 185.436ZM482.313 178.457C479.909 175.409 478.092 171.697 476.875 167.302L475.211 167.761C476.479 172.343 478.39 176.27 480.956 179.525L482.313 178.457ZM476.878 167.312C475.707 162.862 475.114 157.758 475.114 151.99H473.387C473.387 157.873 473.991 163.129 475.208 167.751L476.878 167.312ZM475.114 151.99V144.971H473.387V151.99H475.114ZM475.114 144.971C475.114 139.252 475.706 134.172 476.878 129.722L475.208 129.282C473.991 133.904 473.387 139.137 473.387 144.971H475.114ZM476.876 129.73C478.093 125.287 479.91 121.552 482.313 118.505L480.956 117.438C478.388 120.694 476.478 124.646 475.21 129.275L476.876 129.73ZM482.313 118.505C484.706 115.47 487.719 113.17 491.365 111.602L490.683 110.017C486.779 111.696 483.532 114.171 480.956 117.438L482.313 118.505ZM491.374 111.599C495.016 109.986 499.337 109.165 504.357 109.165V107.44C499.151 107.44 494.583 108.291 490.674 110.02L491.374 111.599ZM504.357 109.165C509.682 109.165 514.233 110.284 518.046 112.487L518.91 110.994C514.79 108.613 509.928 107.44 504.357 107.44V109.165ZM518.056 112.493C521.913 114.649 524.928 117.815 527.101 122.02L528.636 121.228C526.317 116.743 523.071 113.32 518.899 110.988L518.056 112.493ZM527.101 122.02C529.27 126.217 530.423 131.401 530.517 137.608L532.243 137.582C532.147 131.183 530.958 125.721 528.636 121.228L527.101 122.02ZM531.381 136.733H515.682V138.458H531.381V136.733ZM516.545 137.57C516.448 134.162 515.936 131.26 514.978 128.892L513.377 129.539C514.234 131.659 514.726 134.344 514.819 137.62L516.545 137.57ZM514.98 128.898C514.023 126.482 512.637 124.609 510.795 123.347L509.818 124.771C511.321 125.8 512.516 127.366 513.374 129.533L514.98 128.898ZM510.804 123.354C509.001 122.082 506.76 121.478 504.142 121.478V123.203C506.494 123.203 508.362 123.744 509.809 124.764L510.804 123.354ZM504.142 121.478C501.311 121.478 498.9 122.023 496.963 123.175L497.845 124.658C499.443 123.708 501.525 123.203 504.142 123.203V121.478ZM496.969 123.17C495.087 124.267 493.637 125.882 492.614 127.978L494.166 128.735C495.054 126.915 496.28 125.57 497.839 124.661L496.969 123.17ZM492.606 127.993C491.653 130.049 490.989 132.525 490.598 135.402L492.31 135.634C492.684 132.877 493.311 130.578 494.173 128.719L492.606 127.993ZM490.597 135.415C490.257 138.226 490.089 141.412 490.089 144.971H491.816C491.816 141.464 491.982 138.349 492.312 135.621L490.597 135.415ZM490.089 144.971V151.99H491.816V144.971H490.089ZM490.089 151.99C490.089 155.644 490.257 158.902 490.597 161.761L492.312 161.557C491.983 158.782 491.816 155.594 491.816 151.99H490.089ZM490.597 161.762C490.939 164.597 491.579 167.052 492.534 169.112L494.102 168.387C493.241 166.531 492.638 164.26 492.312 161.555L490.597 161.762ZM492.542 169.127C493.568 171.23 495.046 172.845 496.977 173.94L497.83 172.439C496.224 171.529 494.979 170.184 494.094 168.371L492.542 169.127ZM496.977 173.94C498.914 175.038 501.344 175.557 504.214 175.557V173.831C501.539 173.831 499.43 173.346 497.83 172.439L496.977 173.94ZM560.626 186.439L560.312 187.243L560.321 187.246L560.626 186.439ZM550.663 179.707L550.022 180.286L550.026 180.291L550.663 179.707ZM544.426 168.678L543.605 168.945L543.606 168.948L544.426 168.678ZM544.498 129.073L543.676 128.81L543.674 128.815L544.498 129.073ZM550.806 117.327L550.156 116.759L550.806 117.327ZM560.268 110.523L559.945 109.723L559.941 109.725L560.268 110.523ZM593.742 117.756L593.044 118.264L593.049 118.271L593.742 117.756ZM598.904 129.431L598.063 129.629L598.065 129.638L598.904 129.431ZM600.624 153.781V154.643H601.487V153.781H600.624ZM550.304 153.781H549.441V154.643H550.304V153.781ZM550.304 141.176V140.313H549.441V141.176H550.304ZM584.137 141.176V142.039H585.001V141.176H584.137ZM584.137 139.386H585.001V139.374V139.362L584.137 139.386ZM582.847 130.29L582.019 130.535L582.02 130.539L582.847 130.29ZM579.12 124.417L578.569 125.081L578.579 125.09L578.59 125.099L579.12 124.417ZM562.275 127.496L561.536 127.05L561.531 127.057L561.528 127.064L562.275 127.496ZM559.838 134.802L560.686 134.963L560.687 134.961L559.838 134.802ZM559.981 163.234L559.144 163.444L559.145 163.451L559.147 163.458L559.981 163.234ZM563.135 169.823L562.462 170.364L562.47 170.374L563.135 169.823ZM568.153 173.548L567.822 174.345L567.833 174.35L567.845 174.354L568.153 173.548ZM585.069 172.545L585.466 173.312L585.471 173.309L585.069 172.545ZM592.38 166.816L593.082 166.311L592.447 165.432L591.732 166.246L592.38 166.816ZM599.764 177.057L600.456 177.572L600.834 177.065L600.464 176.552L599.764 177.057ZM594.172 182.571L594.693 183.261L594.702 183.254L594.172 182.571ZM585.642 186.941L585.362 186.124L585.359 186.125L585.642 186.941ZM574.03 187.796C569.097 187.796 564.735 187.069 560.931 185.633L560.321 187.246C564.354 188.77 568.928 189.522 574.03 189.522V187.796ZM560.94 185.635C557.138 184.153 553.929 181.982 551.298 179.123L550.026 180.291C552.844 183.352 556.277 185.67 560.312 187.243L560.94 185.635ZM551.303 179.128C548.67 176.22 546.647 172.653 545.247 168.408L543.606 168.948C545.073 173.392 547.208 177.178 550.022 180.286L551.303 179.128ZM545.247 168.41C543.848 164.122 543.14 159.131 543.14 153.423H541.412C541.412 159.269 542.137 164.447 543.605 168.945L545.247 168.41ZM543.14 153.423V145.975H541.412V153.423H543.14ZM543.14 145.975C543.14 139.494 543.874 133.952 545.322 129.33L543.674 128.815C542.159 133.646 541.412 139.372 541.412 145.975H543.14ZM545.32 129.335C546.822 124.647 548.873 120.843 551.455 117.895L550.156 116.759C547.386 119.922 545.233 123.948 543.676 128.81L545.32 129.335ZM551.455 117.895C554.047 114.937 557.091 112.749 560.593 111.322L559.941 109.725C556.181 111.257 552.917 113.605 550.156 116.759L551.455 117.895ZM560.59 111.323C564.159 109.888 568.039 109.165 572.238 109.165V107.44C567.836 107.44 563.736 108.198 559.945 109.723L560.59 111.323ZM572.238 109.165C577.021 109.165 581.127 109.939 584.578 111.456L585.273 109.876C581.557 108.242 577.204 107.44 572.238 107.44V109.165ZM584.578 111.456C588.023 112.97 590.841 115.237 593.044 118.264L594.441 117.249C592.057 113.974 588.997 111.513 585.273 109.876L584.578 111.456ZM593.049 118.271C595.308 121.31 596.986 125.088 598.063 129.629L599.744 129.231C598.623 124.51 596.86 120.505 594.436 117.242L593.049 118.271ZM598.065 129.638C599.192 134.187 599.76 139.438 599.76 145.401H601.487C601.487 139.333 600.909 133.937 599.742 129.224L598.065 129.638ZM599.76 145.401V153.781H601.487V145.401H599.76ZM600.624 152.918H550.304V154.643H600.624V152.918ZM551.168 153.781V141.176H549.441V153.781H551.168ZM550.304 142.039H584.137V140.313H550.304V142.039ZM585.001 141.176V139.386H583.273V141.176H585.001ZM585.001 139.362C584.904 135.777 584.467 132.665 583.674 130.041L582.02 130.539C582.757 132.977 583.18 135.929 583.274 139.409L585.001 139.362ZM583.675 130.045C582.871 127.335 581.543 125.207 579.65 123.736L578.59 125.099C580.137 126.301 581.293 128.088 582.019 130.535L583.675 130.045ZM579.671 123.753C577.795 122.2 575.257 121.478 572.167 121.478V123.203C575.002 123.203 577.099 123.865 578.569 125.081L579.671 123.753ZM572.167 121.478C569.906 121.478 567.862 121.905 566.054 122.782L566.809 124.334C568.347 123.588 570.126 123.203 572.167 123.203V121.478ZM566.054 122.782C564.213 123.676 562.709 125.114 561.536 127.05L563.013 127.943C564.039 126.251 565.307 125.063 566.809 124.334L566.054 122.782ZM561.528 127.064C560.41 128.994 559.573 131.533 558.989 134.643L560.687 134.961C561.25 131.96 562.037 129.628 563.022 127.93L561.528 127.064ZM558.989 134.64C558.403 137.72 558.114 141.502 558.114 145.975H559.841C559.841 141.566 560.126 137.9 560.686 134.963L558.989 134.64ZM558.114 145.975V153.423H559.841V145.975H558.114ZM558.114 153.423C558.114 157.335 558.452 160.68 559.144 163.444L560.819 163.026C560.172 160.441 559.841 157.246 559.841 153.423H558.114ZM559.147 163.458C559.887 166.22 560.985 168.532 562.462 170.364L563.808 169.283C562.514 167.678 561.509 165.598 560.815 163.012L559.147 163.458ZM562.47 170.374C563.943 172.15 565.73 173.478 567.822 174.345L568.484 172.751C566.657 171.994 565.099 170.839 563.8 169.273L562.47 170.374ZM567.845 174.354C569.97 175.162 572.395 175.557 575.105 175.557V173.831C572.56 173.831 570.35 173.461 568.46 172.741L567.845 174.354ZM575.105 175.557C579.082 175.557 582.545 174.821 585.466 173.312L584.672 171.779C582.049 173.134 578.871 173.831 575.105 173.831V175.557ZM585.471 173.309C588.382 171.78 590.904 169.805 593.03 167.384L591.732 166.246C589.748 168.505 587.395 170.349 584.667 171.781L585.471 173.309ZM591.68 167.32L599.063 177.561L600.464 176.552L593.082 166.311L591.68 167.32ZM599.071 176.542C597.742 178.327 595.939 180.111 593.644 181.89L594.702 183.254C597.089 181.404 599.013 179.511 600.456 177.572L599.071 176.542ZM593.652 181.883C591.397 183.585 588.639 185.002 585.362 186.124L585.923 187.757C589.337 186.587 592.265 185.092 594.693 183.261L593.652 181.883ZM585.359 186.125C582.174 187.232 578.403 187.796 574.03 187.796V189.522C578.546 189.522 582.517 188.94 585.926 187.755L585.359 186.125ZM630.514 126.279H631.378V126.253L631.377 126.227L630.514 126.279ZM630.514 187.227V188.09H631.378V187.227H630.514ZM613.813 187.227H612.95V188.09H613.813V187.227ZM613.813 109.736V108.873H612.95V109.736H613.813ZM629.511 109.736L630.373 109.683L630.323 108.873H629.511V109.736ZM627.504 145.688V146.55H628.367V145.688H627.504ZM622.199 145.688L621.336 145.695L621.343 146.55H622.199V145.688ZM629.296 118.616L628.592 118.116L628.587 118.123L629.296 118.616ZM637.611 111.025L638.029 111.78L638.032 111.778L637.611 111.025ZM656.821 109.879L656.49 110.675L656.499 110.679L656.508 110.683L656.821 109.879ZM667.573 123.773L666.737 123.989L666.741 123.999L667.573 123.773ZM669.079 187.227V188.09H669.943V187.227H669.079ZM652.377 187.227H651.514V188.09H652.377V187.227ZM651.159 128.5L650.345 128.789L650.349 128.799L650.353 128.81L651.159 128.5ZM647.718 123.916L647.26 124.647L647.269 124.653L647.277 124.658L647.718 123.916ZM635.962 124.345L636.446 125.061L636.45 125.057L635.962 124.345ZM631.374 129.359L630.634 128.915L630.632 128.92L631.374 129.359ZM628.507 136.735L629.347 136.938L629.348 136.935L628.507 136.735ZM629.651 126.279V187.227H631.378V126.279H629.651ZM630.514 186.364H613.813V188.09H630.514V186.364ZM614.677 187.227V109.736H612.95V187.227H614.677ZM613.813 110.599H629.511V108.873H613.813V110.599ZM628.649 109.787L629.652 126.332L631.377 126.227L630.373 109.683L628.649 109.787ZM627.504 144.825H622.199V146.55H627.504V144.825ZM623.063 145.681C623.016 140.16 623.607 135.155 624.825 130.659L623.158 130.207C621.892 134.879 621.288 140.044 621.336 145.695L623.063 145.681ZM624.825 130.659C626.046 126.154 627.777 122.308 630.005 119.109L628.587 118.123C626.228 121.512 624.422 125.546 623.158 130.207L624.825 130.659ZM630 119.116C632.274 115.916 634.952 113.478 638.029 111.78L637.194 110.269C633.866 112.105 631 114.728 628.592 118.117L630 119.116ZM638.032 111.778C641.144 110.04 644.605 109.165 648.434 109.165V107.44C644.331 107.44 640.576 108.38 637.189 110.272L638.032 111.778ZM648.434 109.165C651.393 109.165 654.074 109.674 656.49 110.675L657.153 109.082C654.503 107.983 651.593 107.44 648.434 107.44V109.165ZM656.508 110.683C658.938 111.627 661.013 113.177 662.739 115.356L664.093 114.284C662.187 111.88 659.866 110.136 657.135 109.075L656.508 110.683ZM662.739 115.356C664.462 117.53 665.804 120.396 666.738 123.989L668.409 123.556C667.432 119.797 666.002 116.694 664.093 114.284L662.739 115.356ZM666.741 123.999C667.717 127.579 668.215 131.986 668.215 137.237H669.943C669.943 131.888 669.437 127.319 668.406 123.546L666.741 123.999ZM668.215 137.237V187.227H669.943V137.237H668.215ZM669.079 186.364H652.377V188.09H669.079V186.364ZM653.241 187.227V137.094H651.514V187.227H653.241ZM653.241 137.094C653.241 133.416 652.831 130.431 651.964 128.188L650.353 128.81C651.111 130.77 651.514 133.514 651.514 137.094H653.241ZM651.972 128.211C651.16 125.927 649.906 124.21 648.159 123.174L647.277 124.658C648.589 125.436 649.629 126.775 650.345 128.789L651.972 128.211ZM648.175 123.184C646.474 122.121 644.368 121.621 641.912 121.621V123.346C644.139 123.346 645.903 123.8 647.26 124.647L648.175 123.184ZM641.912 121.621C639.583 121.621 637.43 122.296 635.474 123.634L636.45 125.057C638.125 123.912 639.94 123.346 641.912 123.346V121.621ZM635.479 123.631C633.589 124.906 631.978 126.678 630.634 128.915L632.115 129.803C633.352 127.743 634.799 126.172 636.446 125.061L635.479 123.631ZM630.632 128.92C629.337 131.108 628.353 133.651 627.667 136.537L629.348 136.935C630 134.187 630.927 131.811 632.118 129.797L630.632 128.92ZM627.668 136.533C626.981 139.376 626.64 142.429 626.64 145.688H628.367C628.367 142.549 628.696 139.633 629.347 136.938L627.668 136.533ZM717.176 109.736H718.04V108.873H717.176V109.736ZM717.176 122.627V123.49H718.04V122.627H717.176ZM679.114 122.627H678.251V123.49H679.114V122.627ZM679.114 109.736V108.873H678.251V109.736H679.114ZM689.508 90.7559V89.8931H688.644V90.7559H689.508ZM706.138 90.7559H707.001V89.8931H706.138V90.7559ZM715.313 173.978L715.448 174.829L715.465 174.827L715.482 174.823L715.313 173.978ZM717.392 173.476H718.255V172.279L717.119 172.658L717.392 173.476ZM717.392 186.941L717.702 187.745L718.255 187.533V186.941H717.392ZM713.09 188.158L713.265 189.003L713.09 188.158ZM698.109 186.582L697.701 187.343L697.712 187.349L698.109 186.582ZM691.801 179.635L691.02 180.003L691.022 180.007L691.801 179.635ZM716.313 109.736V122.627H718.04V109.736H716.313ZM717.176 121.764H679.114V123.49H717.176V121.764ZM679.978 122.627V109.736H678.251V122.627H679.978ZM679.114 110.599H717.176V108.873H679.114V110.599ZM689.508 91.6187H706.138V89.8931H689.508V91.6187ZM705.274 90.7559V165.598H707.001V90.7559H705.274ZM705.274 165.598C705.274 168.025 705.538 169.977 706.131 171.377L707.722 170.705C707.263 169.622 707.001 167.945 707.001 165.598H705.274ZM706.131 171.377C706.716 172.76 707.588 173.792 708.794 174.334L709.502 172.761C708.798 172.444 708.187 171.805 707.722 170.705L706.131 171.377ZM708.794 174.334C709.884 174.824 711.133 175.055 712.517 175.055V173.33C711.322 173.33 710.324 173.131 709.502 172.761L708.794 174.334ZM712.517 175.055C713.516 175.055 714.493 174.98 715.448 174.829L715.178 173.125C714.316 173.261 713.43 173.33 712.517 173.33V175.055ZM715.482 174.823C716.442 174.632 717.18 174.456 717.664 174.295L717.119 172.658C716.742 172.783 716.094 172.942 715.144 173.131L715.482 174.823ZM716.528 173.476V186.941H718.255V173.476H716.528ZM717.081 186.136C715.892 186.592 714.506 186.986 712.917 187.313L713.265 189.003C714.925 188.662 716.405 188.243 717.702 187.745L717.081 186.136ZM712.917 187.313C711.366 187.632 709.468 187.796 707.213 187.796V189.522C709.544 189.522 711.565 189.353 713.265 189.003L712.917 187.313ZM707.213 187.796C703.94 187.796 701.045 187.129 698.507 185.816L697.712 187.349C700.526 188.804 703.699 189.522 707.213 189.522V187.796ZM698.517 185.821C696.029 184.49 694.044 182.325 692.58 179.263L691.022 180.007C692.617 183.343 694.838 185.809 697.702 187.343L698.517 185.821ZM692.583 179.268C691.128 176.179 690.371 172.021 690.371 166.744H688.644C688.644 172.162 689.417 176.599 691.02 180.003L692.583 179.268ZM690.371 166.744V90.7559H688.644V166.744H690.371Z" fill="url(#paint2_linear_12_18)"/>
<path d="M335.836 224.435C335.836 224.03 335.791 223.671 335.701 223.357C335.62 223.033 335.463 222.741 335.228 222.48C334.994 222.219 334.662 221.963 334.23 221.712C333.807 221.46 333.259 221.204 332.584 220.943C331.811 220.646 331.086 220.323 330.412 219.973C329.746 219.613 329.157 219.209 328.644 218.76C328.141 218.301 327.744 217.766 327.457 217.156C327.169 216.544 327.025 215.834 327.025 215.025C327.025 214.226 327.165 213.497 327.444 212.842C327.731 212.176 328.136 211.605 328.658 211.129C329.188 210.644 329.818 210.27 330.546 210.01C331.275 209.741 332.08 209.606 332.962 209.606C334.23 209.606 335.314 209.875 336.214 210.415C337.122 210.954 337.815 211.678 338.291 212.585C338.777 213.493 339.02 214.499 339.02 215.605H335.754C335.754 214.967 335.656 214.401 335.458 213.906C335.26 213.412 334.954 213.025 334.54 212.747C334.127 212.468 333.591 212.329 332.935 212.329C332.332 212.329 331.833 212.446 331.437 212.679C331.051 212.913 330.762 213.232 330.573 213.636C330.394 214.041 330.304 214.504 330.304 215.025C330.304 215.384 330.381 215.713 330.533 216.009C330.686 216.297 330.906 216.562 331.194 216.804C331.482 217.047 331.833 217.276 332.247 217.492C332.66 217.708 333.137 217.915 333.677 218.112C334.595 218.445 335.395 218.813 336.079 219.218C336.762 219.622 337.324 220.076 337.766 220.579C338.215 221.074 338.548 221.635 338.764 222.264C338.988 222.894 339.101 223.608 339.101 224.408C339.101 225.217 338.962 225.954 338.683 226.619C338.413 227.275 338.017 227.837 337.495 228.304C336.974 228.771 336.344 229.136 335.607 229.396C334.868 229.648 334.041 229.773 333.124 229.773C332.278 229.773 331.464 229.648 330.682 229.396C329.908 229.144 329.216 228.763 328.603 228.25C327.992 227.729 327.506 227.078 327.147 226.295C326.796 225.514 326.62 224.596 326.62 223.545H329.899C329.899 224.174 329.976 224.714 330.128 225.163C330.281 225.603 330.501 225.967 330.789 226.255C331.086 226.533 331.432 226.74 331.829 226.875C332.233 227.001 332.683 227.064 333.178 227.064C333.789 227.064 334.289 226.956 334.675 226.74C335.071 226.515 335.363 226.205 335.552 225.81C335.741 225.414 335.836 224.956 335.836 224.435ZM362.42 218.086V221.429C362.42 222.813 362.258 224.026 361.934 225.068C361.619 226.111 361.161 226.983 360.558 227.684C359.964 228.376 359.244 228.897 358.399 229.248C357.562 229.598 356.627 229.773 355.592 229.773C354.567 229.773 353.631 229.598 352.786 229.248C351.949 228.897 351.226 228.376 350.613 227.684C350.011 226.983 349.543 226.111 349.21 225.068C348.886 224.026 348.725 222.813 348.725 221.429V218.086C348.725 216.684 348.886 215.457 349.21 214.405C349.534 213.345 349.998 212.459 350.6 211.749C351.212 211.039 351.936 210.504 352.772 210.145C353.618 209.786 354.549 209.606 355.566 209.606C356.6 209.606 357.535 209.786 358.372 210.145C359.218 210.504 359.941 211.039 360.544 211.749C361.147 212.459 361.61 213.345 361.934 214.405C362.258 215.457 362.42 216.684 362.42 218.086ZM359.168 221.429V218.058C359.168 217.061 359.087 216.207 358.925 215.497C358.772 214.778 358.543 214.194 358.237 213.744C357.931 213.286 357.554 212.949 357.104 212.733C356.663 212.509 356.15 212.396 355.566 212.396C354.998 212.396 354.491 212.509 354.041 212.733C353.6 212.949 353.222 213.286 352.908 213.744C352.601 214.194 352.368 214.778 352.206 215.497C352.053 216.207 351.976 217.061 351.976 218.058V221.429C351.976 222.408 352.057 223.253 352.219 223.963C352.381 224.665 352.615 225.239 352.921 225.689C353.236 226.13 353.618 226.457 354.067 226.673C354.517 226.889 355.026 226.997 355.592 226.997C356.168 226.997 356.681 226.889 357.13 226.673C357.58 226.457 357.953 226.13 358.25 225.689C358.556 225.239 358.786 224.665 358.939 223.963C359.092 223.253 359.168 222.408 359.168 221.429ZM383.364 226.767V229.504H375.201V226.767H383.364ZM376.064 209.875V229.504H372.786V209.875H376.064ZM401.528 209.875H404.807V223.505C404.807 225.005 404.524 226.215 403.957 227.131C403.4 228.048 402.644 228.718 401.69 229.14C400.746 229.563 399.693 229.773 398.533 229.773C397.327 229.773 396.253 229.563 395.308 229.14C394.364 228.718 393.622 228.048 393.082 227.131C392.542 226.215 392.272 225.005 392.272 223.505V209.875H395.537V223.505C395.537 224.439 395.655 225.163 395.889 225.675C396.131 226.187 396.473 226.543 396.914 226.74C397.364 226.938 397.903 227.037 398.533 227.037C399.162 227.037 399.698 226.938 400.139 226.74C400.588 226.543 400.93 226.187 401.164 225.675C401.407 225.163 401.528 224.439 401.528 223.505V209.875ZM424.82 223.1H428.086C428.023 224.52 427.734 225.729 427.222 226.727C426.709 227.715 425.972 228.47 425.009 228.991C424.056 229.513 422.891 229.773 421.514 229.773C420.471 229.773 419.536 229.585 418.708 229.207C417.889 228.83 417.192 228.287 416.616 227.576C416.041 226.857 415.6 225.981 415.294 224.948C414.997 223.914 414.849 222.74 414.849 221.429V217.95C414.849 216.639 415.002 215.465 415.308 214.432C415.622 213.398 416.072 212.522 416.657 211.803C417.241 211.084 417.952 210.541 418.789 210.172C419.634 209.794 420.588 209.606 421.65 209.606C423.008 209.606 424.15 209.867 425.076 210.388C426.003 210.909 426.718 211.673 427.222 212.679C427.726 213.686 428.018 214.913 428.099 216.36H424.834C424.789 215.38 424.654 214.598 424.429 214.014C424.213 213.421 423.88 212.994 423.43 212.733C422.99 212.472 422.396 212.342 421.65 212.342C421.029 212.342 420.493 212.459 420.044 212.693C419.603 212.926 419.239 213.277 418.951 213.744C418.672 214.203 418.461 214.783 418.317 215.484C418.182 216.175 418.114 216.989 418.114 217.924V221.429C418.114 222.327 418.173 223.123 418.29 223.815C418.406 224.507 418.595 225.096 418.856 225.581C419.117 226.057 419.463 226.421 419.895 226.673C420.327 226.916 420.867 227.037 421.514 227.037C422.288 227.037 422.905 226.916 423.363 226.673C423.831 226.431 424.177 226.022 424.402 225.446C424.627 224.871 424.766 224.089 424.82 223.1ZM441.433 209.875V229.504H438.155V209.875H441.433ZM465.602 218.086V221.429C465.602 222.813 465.44 224.026 465.116 225.068C464.802 226.111 464.342 226.983 463.74 227.684C463.146 228.376 462.427 228.897 461.581 229.248C460.745 229.598 459.809 229.773 458.774 229.773C457.749 229.773 456.814 229.598 455.968 229.248C455.132 228.897 454.407 228.376 453.796 227.684C453.193 226.983 452.725 226.111 452.393 225.068C452.069 224.026 451.906 222.813 451.906 221.429V218.086C451.906 216.684 452.069 215.457 452.393 214.405C452.716 213.345 453.179 212.459 453.782 211.749C454.394 211.039 455.118 210.504 455.955 210.145C456.8 209.786 457.731 209.606 458.747 209.606C459.782 209.606 460.717 209.786 461.554 210.145C462.399 210.504 463.124 211.039 463.727 211.749C464.329 212.459 464.792 213.345 465.116 214.405C465.44 215.457 465.602 216.684 465.602 218.086ZM462.35 221.429V218.058C462.35 217.061 462.269 216.207 462.107 215.497C461.955 214.778 461.725 214.194 461.419 213.744C461.114 213.286 460.735 212.949 460.285 212.733C459.845 212.509 459.332 212.396 458.747 212.396C458.181 212.396 457.672 212.509 457.223 212.733C456.782 212.949 456.405 213.286 456.089 213.744C455.784 214.194 455.55 214.778 455.388 215.497C455.235 216.207 455.159 217.061 455.159 218.058V221.429C455.159 222.408 455.24 223.253 455.401 223.963C455.564 224.665 455.798 225.239 456.103 225.689C456.418 226.13 456.8 226.457 457.25 226.673C457.7 226.889 458.208 226.997 458.774 226.997C459.35 226.997 459.863 226.889 460.313 226.673C460.763 226.457 461.136 226.13 461.433 225.689C461.739 225.239 461.968 224.665 462.12 223.963C462.274 223.253 462.35 222.408 462.35 221.429ZM489.285 209.875V229.504H486.074L479.138 215.915V229.504H475.967V209.875H479.138L486.128 223.558V209.875H489.285ZM510.985 226.767V229.504H502.457V226.767H510.985ZM503.321 209.875V229.504H500.042V209.875H503.321ZM509.838 218.045V220.741H502.457V218.045H509.838ZM510.903 209.875V212.626H502.457V209.875H510.903ZM529.19 224.435C529.19 224.03 529.145 223.671 529.055 223.357C528.974 223.033 528.817 222.741 528.583 222.48C528.349 222.219 528.016 221.963 527.584 221.712C527.161 221.46 526.613 221.204 525.938 220.943C525.165 220.646 524.44 220.323 523.766 219.973C523.1 219.613 522.511 219.209 521.998 218.76C521.495 218.301 521.098 217.766 520.811 217.156C520.523 216.544 520.379 215.834 520.379 215.025C520.379 214.226 520.518 213.497 520.797 212.842C521.085 212.176 521.49 211.605 522.012 211.129C522.542 210.644 523.172 210.27 523.901 210.01C524.629 209.741 525.434 209.606 526.316 209.606C527.584 209.606 528.668 209.875 529.568 210.415C530.476 210.954 531.169 211.678 531.646 212.585C532.131 213.493 532.375 214.499 532.375 215.605H529.109C529.109 214.967 529.01 214.401 528.812 213.906C528.614 213.412 528.308 213.025 527.895 212.747C527.481 212.468 526.945 212.329 526.289 212.329C525.686 212.329 525.187 212.446 524.791 212.679C524.404 212.913 524.117 213.232 523.927 213.636C523.748 214.041 523.658 214.504 523.658 215.025C523.658 215.384 523.734 215.713 523.887 216.009C524.04 216.297 524.261 216.562 524.548 216.804C524.836 217.047 525.187 217.276 525.601 217.492C526.015 217.708 526.491 217.915 527.031 218.112C527.949 218.445 528.749 218.813 529.432 219.218C530.116 219.622 530.679 220.076 531.119 220.579C531.569 221.074 531.902 221.635 532.118 222.264C532.343 222.894 532.455 223.608 532.455 224.408C532.455 225.217 532.316 225.954 532.037 226.619C531.767 227.275 531.371 227.837 530.85 228.304C530.328 228.771 529.698 229.136 528.96 229.396C528.223 229.648 527.395 229.773 526.477 229.773C525.632 229.773 524.819 229.648 524.035 229.396C523.262 229.144 522.569 228.763 521.958 228.25C521.346 227.729 520.86 227.078 520.501 226.295C520.149 225.514 519.974 224.596 519.974 223.545H523.253C523.253 224.174 523.33 224.714 523.483 225.163C523.636 225.603 523.856 225.967 524.143 226.255C524.44 226.533 524.787 226.74 525.182 226.875C525.587 227.001 526.037 227.064 526.532 227.064C527.143 227.064 527.642 226.956 528.029 226.74C528.426 226.515 528.717 226.205 528.907 225.81C529.096 225.414 529.19 224.956 529.19 224.435ZM559.272 209.875V229.504H555.993V209.875H559.272ZM583.427 209.875V229.504H580.215L573.28 215.915V229.504H570.109V209.875H573.28L580.27 223.558V209.875H583.427ZM600.917 209.875V229.504H597.652V209.875H600.917ZM605.923 209.875V212.626H592.7V209.875H605.923ZM626.503 226.767V229.504H617.975V226.767H626.503ZM618.839 209.875V229.504H615.56V209.875H618.839ZM625.355 218.045V220.741H617.975V218.045H625.355ZM626.422 209.875V212.626H617.975V209.875H626.422ZM649.12 219.433V227.172C648.877 227.469 648.509 227.823 648.014 228.237C647.528 228.641 646.871 229.001 646.043 229.315C645.224 229.62 644.191 229.773 642.94 229.773C641.888 229.773 640.925 229.603 640.053 229.262C639.189 228.92 638.447 228.403 637.827 227.711C637.206 227.019 636.729 226.156 636.396 225.123C636.063 224.08 635.896 222.848 635.896 221.429V217.937C635.896 216.535 636.045 215.313 636.342 214.27C636.648 213.227 637.093 212.36 637.678 211.668C638.263 210.968 638.973 210.451 639.81 210.118C640.646 209.776 641.609 209.606 642.697 209.606C644.073 209.606 645.22 209.849 646.138 210.333C647.065 210.81 647.77 211.52 648.256 212.464C648.751 213.398 649.039 214.54 649.12 215.888H645.922C645.85 215.061 645.693 214.391 645.45 213.88C645.216 213.358 644.878 212.972 644.438 212.72C643.997 212.468 643.43 212.342 642.737 212.342C642.108 212.342 641.568 212.45 641.118 212.666C640.668 212.881 640.3 213.219 640.012 213.677C639.725 214.126 639.513 214.702 639.378 215.402C639.243 216.104 639.175 216.94 639.175 217.91V221.429C639.175 222.417 639.261 223.267 639.432 223.977C639.603 224.687 639.85 225.271 640.174 225.729C640.507 226.179 640.916 226.511 641.402 226.727C641.888 226.934 642.44 227.037 643.061 227.037C643.674 227.037 644.159 226.974 644.519 226.848C644.878 226.722 645.157 226.583 645.355 226.431C645.562 226.268 645.729 226.143 645.855 226.053V222.008H642.684V219.433H649.12ZM659.566 209.875H665.503C666.798 209.875 667.896 210.1 668.796 210.549C669.695 210.999 670.378 211.664 670.847 212.545C671.323 213.416 671.562 214.499 671.562 215.793C671.562 216.773 671.413 217.636 671.116 218.382C670.828 219.128 670.41 219.757 669.861 220.269C669.313 220.772 668.651 221.163 667.878 221.442L666.92 221.968H661.9L661.887 219.218H665.423C666.061 219.218 666.592 219.079 667.014 218.8C667.437 218.521 667.752 218.135 667.959 217.641C668.175 217.146 668.283 216.584 668.283 215.955C668.283 215.282 668.189 214.698 667.999 214.203C667.81 213.699 667.513 213.313 667.109 213.044C666.704 212.765 666.169 212.626 665.503 212.626H662.845V229.504H659.566V209.875ZM668.714 229.504L664.977 220.687L668.391 220.674L672.223 229.329V229.504H668.714ZM688.377 212.572L683.628 229.504H680.2L686.434 209.875H688.565L688.377 212.572ZM692.168 229.504L687.406 212.572L687.176 209.875H689.349L695.609 229.504H692.168ZM692.249 222.211V224.96H683.101V222.211H692.249ZM715.473 226.767V229.504H707.31V226.767H715.473ZM708.174 209.875V229.504H704.895V209.875H708.174ZM736.08 226.767V229.504H727.553V226.767H736.08ZM728.416 209.875V229.504H725.138V209.875H728.416ZM734.933 218.045V220.741H727.553V218.045H734.933ZM736 209.875V212.626H727.553V209.875H736ZM754.285 224.435C754.285 224.03 754.24 223.671 754.15 223.357C754.069 223.033 753.912 222.741 753.678 222.48C753.444 222.219 753.112 221.963 752.68 221.712C752.257 221.46 751.708 221.204 751.034 220.943C750.26 220.646 749.536 220.323 748.861 219.973C748.195 219.613 747.607 219.209 747.094 218.76C746.59 218.301 746.194 217.766 745.906 217.156C745.619 216.544 745.474 215.834 745.474 215.025C745.474 214.226 745.614 213.497 745.893 212.842C746.181 212.176 746.586 211.605 747.107 211.129C747.638 210.644 748.268 210.27 748.996 210.01C749.725 209.741 750.53 209.606 751.411 209.606C752.68 209.606 753.764 209.875 754.663 210.415C755.572 210.954 756.264 211.678 756.741 212.585C757.227 213.493 757.47 214.499 757.47 215.605H754.205C754.205 214.967 754.106 214.401 753.908 213.906C753.71 213.412 753.404 213.025 752.99 212.747C752.576 212.468 752.041 212.329 751.385 212.329C750.782 212.329 750.283 212.446 749.887 212.679C749.5 212.913 749.212 213.232 749.024 213.636C748.843 214.041 748.753 214.504 748.753 215.025C748.753 215.384 748.83 215.713 748.983 216.009C749.136 216.297 749.356 216.562 749.644 216.804C749.932 217.047 750.283 217.276 750.696 217.492C751.11 217.708 751.587 217.915 752.126 218.112C753.044 218.445 753.845 218.813 754.529 219.218C755.212 219.622 755.774 220.076 756.215 220.579C756.664 221.074 756.998 221.635 757.213 222.264C757.438 222.894 757.551 223.608 757.551 224.408C757.551 225.217 757.411 225.954 757.132 226.619C756.863 227.275 756.466 227.837 755.945 228.304C755.423 228.771 754.794 229.136 754.056 229.396C753.318 229.648 752.491 229.773 751.574 229.773C750.727 229.773 749.914 229.648 749.132 229.396C748.358 229.144 747.665 228.763 747.053 228.25C746.442 227.729 745.955 227.078 745.596 226.295C745.246 225.514 745.069 224.596 745.069 223.545H748.348C748.348 224.174 748.425 224.714 748.578 225.163C748.731 225.603 748.951 225.967 749.24 226.255C749.536 226.533 749.882 226.74 750.278 226.875C750.682 227.001 751.132 227.064 751.627 227.064C752.239 227.064 752.739 226.956 753.125 226.74C753.521 226.515 753.813 226.205 754.002 225.81C754.191 225.414 754.285 224.956 754.285 224.435ZM332.206 262.29H328.793L328.819 259.553H332.206C333.259 259.553 334.1 259.36 334.729 258.974C335.359 258.578 335.813 257.976 336.092 257.167C336.371 256.359 336.511 255.325 336.511 254.067V250.872C336.511 249.901 336.43 249.074 336.267 248.391C336.114 247.699 335.872 247.138 335.539 246.706C335.216 246.266 334.788 245.942 334.257 245.735C333.727 245.519 333.088 245.412 332.341 245.412H328.725V242.662H332.341C333.465 242.662 334.482 242.841 335.391 243.201C336.299 243.561 337.077 244.09 337.725 244.792C338.381 245.484 338.886 246.342 339.236 247.366C339.587 248.391 339.762 249.568 339.762 250.899V254.067C339.762 255.396 339.587 256.574 339.236 257.598C338.886 258.615 338.381 259.472 337.725 260.174C337.068 260.866 336.277 261.391 335.35 261.751C334.424 262.111 333.375 262.29 332.206 262.29ZM330.668 242.662V262.29H327.389V242.662H330.668ZM361.084 259.553V262.29H352.556V259.553H361.084ZM353.42 242.662V262.29H350.141V242.662H353.42ZM359.937 250.831V253.528H352.556V250.831H359.937ZM361.003 242.662V245.412H352.556V242.662H361.003ZM392.704 257.221C392.704 256.817 392.659 256.458 392.569 256.143C392.488 255.819 392.331 255.527 392.097 255.266C391.863 255.006 391.53 254.749 391.099 254.498C390.675 254.246 390.127 253.99 389.453 253.73C388.679 253.433 387.954 253.109 387.28 252.759C386.614 252.399 386.025 251.995 385.512 251.546C385.009 251.088 384.613 250.553 384.325 249.942C384.037 249.33 383.893 248.62 383.893 247.812C383.893 247.012 384.033 246.284 384.311 245.628C384.6 244.963 385.005 244.392 385.526 243.915C386.056 243.43 386.686 243.057 387.415 242.796C388.144 242.527 388.948 242.392 389.83 242.392C391.099 242.392 392.182 242.662 393.082 243.201C393.991 243.74 394.683 244.464 395.16 245.372C395.645 246.279 395.889 247.285 395.889 248.391H392.623C392.623 247.753 392.524 247.187 392.327 246.693C392.129 246.198 391.822 245.812 391.409 245.533C390.995 245.254 390.46 245.115 389.803 245.115C389.201 245.115 388.701 245.232 388.305 245.466C387.919 245.7 387.631 246.019 387.442 246.423C387.262 246.827 387.172 247.291 387.172 247.812C387.172 248.171 387.249 248.499 387.402 248.795C387.555 249.083 387.775 249.348 388.062 249.591C388.351 249.833 388.701 250.063 389.115 250.278C389.529 250.494 390.005 250.701 390.545 250.899C391.463 251.231 392.264 251.599 392.947 252.004C393.631 252.409 394.193 252.862 394.634 253.365C395.083 253.86 395.416 254.422 395.632 255.051C395.857 255.68 395.969 256.395 395.969 257.195C395.969 258.003 395.83 258.74 395.551 259.405C395.282 260.062 394.885 260.623 394.364 261.09C393.842 261.558 393.213 261.922 392.475 262.182C391.737 262.434 390.91 262.559 389.992 262.559C389.146 262.559 388.333 262.434 387.549 262.182C386.777 261.93 386.084 261.549 385.472 261.037C384.86 260.515 384.374 259.864 384.015 259.082C383.664 258.3 383.488 257.383 383.488 256.332H386.767C386.767 256.961 386.844 257.5 386.997 257.95C387.15 258.39 387.37 258.754 387.657 259.041C387.954 259.32 388.301 259.527 388.697 259.661C389.101 259.787 389.551 259.85 390.046 259.85C390.657 259.85 391.157 259.742 391.543 259.527C391.94 259.302 392.232 258.992 392.421 258.597C392.61 258.201 392.704 257.742 392.704 257.221ZM419.288 250.872V254.215C419.288 255.599 419.127 256.812 418.803 257.855C418.488 258.898 418.029 259.769 417.426 260.471C416.832 261.163 416.113 261.684 415.267 262.034C414.431 262.384 413.495 262.559 412.461 262.559C411.435 262.559 410.5 262.384 409.654 262.034C408.818 261.684 408.094 261.163 407.482 260.471C406.879 259.769 406.412 258.898 406.078 257.855C405.755 256.812 405.593 255.599 405.593 254.215V250.872C405.593 249.47 405.755 248.243 406.078 247.191C406.402 246.131 406.866 245.246 407.469 244.536C408.08 243.826 408.805 243.291 409.641 242.931C410.487 242.572 411.418 242.392 412.434 242.392C413.469 242.392 414.404 242.572 415.241 242.931C416.086 243.291 416.81 243.826 417.412 244.536C418.015 245.246 418.479 246.131 418.803 247.191C419.127 248.243 419.288 249.47 419.288 250.872ZM416.037 254.215V250.844C416.037 249.847 415.956 248.994 415.793 248.284C415.64 247.564 415.412 246.98 415.105 246.53C414.799 246.072 414.422 245.735 413.972 245.519C413.532 245.295 413.019 245.183 412.434 245.183C411.867 245.183 411.359 245.295 410.909 245.519C410.469 245.735 410.09 246.072 409.776 246.53C409.47 246.98 409.236 247.564 409.074 248.284C408.921 248.994 408.844 249.847 408.844 250.844V254.215C408.844 255.195 408.926 256.039 409.088 256.749C409.249 257.451 409.483 258.025 409.789 258.475C410.104 258.916 410.487 259.244 410.936 259.459C411.386 259.675 411.894 259.783 412.461 259.783C413.037 259.783 413.549 259.675 413.999 259.459C414.449 259.244 414.822 258.916 415.119 258.475C415.425 258.025 415.654 257.451 415.807 256.749C415.96 256.039 416.037 255.195 416.037 254.215ZM432.933 242.662V262.29H429.654V242.662H432.933ZM439.301 251.222V253.972H432.177V251.222H439.301ZM440.218 242.662V245.412H432.177V242.662H440.218ZM457.331 242.662V262.29H454.065V242.662H457.331ZM462.336 242.662V245.412H449.114V242.662H462.336ZM476.372 257.99L479.516 242.662H481.459L481.378 246.504L477.978 262.29H475.941L476.372 257.99ZM474.376 242.662L476.871 257.882L476.979 262.29H474.834L471.124 242.662H474.376ZM484.873 257.828L487.342 242.662H490.58L486.883 262.29H484.738L484.873 257.828ZM482.242 242.662L485.358 258.03L485.763 262.29H483.726L480.407 246.491L480.326 242.662H482.242ZM506.276 245.358L501.526 262.29H498.099L504.333 242.662H506.465L506.276 245.358ZM510.068 262.29L505.304 245.358L505.075 242.662H507.247L513.508 262.29H510.068ZM510.148 254.997V257.747H501V254.997H510.148ZM522.807 242.662H528.744C530.04 242.662 531.137 242.886 532.037 243.335C532.937 243.785 533.62 244.45 534.088 245.331C534.564 246.203 534.803 247.285 534.803 248.58C534.803 249.56 534.654 250.422 534.357 251.168C534.07 251.914 533.652 252.543 533.103 253.056C532.554 253.559 531.893 253.95 531.119 254.228L530.161 254.755H525.142L525.129 252.004H528.664C529.302 252.004 529.833 251.865 530.255 251.586C530.679 251.308 530.994 250.921 531.2 250.427C531.416 249.932 531.524 249.371 531.524 248.742C531.524 248.068 531.43 247.484 531.241 246.989C531.052 246.486 530.755 246.099 530.35 245.83C529.945 245.551 529.41 245.412 528.744 245.412H526.086V262.29H522.807V242.662ZM531.956 262.29L528.218 253.473L531.632 253.46L535.464 262.115V262.29H531.956ZM555.788 259.553V262.29H547.26V259.553H555.788ZM548.124 242.662V262.29H544.845V242.662H548.124ZM554.641 250.831V253.528H547.26V250.831H554.641ZM555.706 242.662V245.412H547.26V242.662H555.706Z" fill="url(#paint3_linear_12_18)"/>
<defs>
<linearGradient id="paint0_linear_12_18" x1="178.751" y1="22.3842" x2="178.751" y2="286.02" gradientUnits="userSpaceOnUse">
<stop stop-color="#535353"/>
<stop offset="1" stop-color="#131313"/>
</linearGradient>
<linearGradient id="paint1_linear_12_18" x1="517.439" y1="82.9498" x2="517.439" y2="188.659" gradientUnits="userSpaceOnUse">
<stop stop-color="#535353"/>
<stop offset="1" stop-color="#131313"/>
</linearGradient>
<linearGradient id="paint2_linear_12_18" x1="517.28" y1="82.0871" x2="517.28" y2="189.522" gradientUnits="userSpaceOnUse">
<stop stop-color="#535353"/>
<stop offset="1" stop-color="#131313"/>
</linearGradient>
<linearGradient id="paint3_linear_12_18" x1="542.085" y1="209.606" x2="542.085" y2="262.559" gradientUnits="userSpaceOnUse">
<stop stop-color="#535353"/>
<stop offset="1" stop-color="#131313"/>
</linearGradient>
</defs>
</svg>
